<?xml version="1.0" encoding="UTF-8" standalone="no"?>
<!-- Created with Inkscape (http://www.inkscape.org/) -->

<svg
   width="11.715239mm"
   height="16.444227mm"
   viewBox="0 0 11.715239 16.444227"
   version="1.1"
   id="svg1"
   xmlns="http://www.w3.org/2000/svg"
   xmlns:svg="http://www.w3.org/2000/svg">
  <defs
     id="defs1" />
  <g
     id="layer1"
     transform="translate(-93.735304,96.161452)">
    <g
       id="g21-2-1"
       transform="matrix(2,0,0,2,264.13774,-142.49999)"
       style="stroke-width:0.661458;stroke-dasharray:none">
      <g
         id="g20-1-9"
         style="stroke-width:0.661458;stroke-dasharray:none">
        <path
           style="fill:#ffffff;fill-opacity:1;stroke:#000000;stroke-width:0.661458;stroke-linecap:round;stroke-linejoin:round;stroke-dasharray:none;stroke-opacity:1"
           id="path28"
           transform="rotate(-90)"
           d="m -26.060658,-84.109525 a 1.5000001,2.5980771 0 0 1 1.634685,-0.563193 1.5000001,2.5980771 0 0 1 0.925975,2.40031 1.5000001,2.5980771 0 0 1 -0.925975,2.400311 1.5000001,2.5980771 0 0 1 -1.634685,-0.563193 l 1.06066,-1.837118 z" />
        <path
           style="fill:#ffffff;fill-opacity:1;stroke:#000000;stroke-width:0.661458;stroke-linecap:round;stroke-linejoin:round;stroke-dasharray:none;stroke-opacity:1"
           id="path28-3"
           transform="rotate(-90)"
           d="m -31.060658,-84.109525 a 1.5000001,2.5980771 0 0 1 1.634685,-0.563193 1.5000001,2.5980771 0 0 1 0.925975,2.40031 1.5000001,2.5980771 0 0 1 -0.925975,2.400311 1.5000001,2.5980771 0 0 1 -1.634685,-0.563193 l 1.06066,-1.837118 z" />
        <path
           style="fill:#919191;fill-opacity:1;stroke:#000000;stroke-width:0.661458;stroke-linecap:round;stroke-linejoin:round;stroke-dasharray:none;stroke-opacity:1"
           d="m -82.272408,29.999997 v -4.999999 l -1.837118,1.06066 v 5 z"
           id="path30" />
        <path
           style="fill:#cdcdcd;fill-opacity:1;stroke:#000000;stroke-width:0.661458;stroke-linecap:round;stroke-linejoin:round;stroke-dasharray:none;stroke-opacity:1"
           d="m -82.272408,24.999998 1.837118,1.06066 v 5 l -1.837118,-1.060661 z"
           id="path31" />
        <path
           style="fill:#ffffff;fill-opacity:1;stroke:#000000;stroke-width:0.661458;stroke-linecap:round;stroke-linejoin:round;stroke-dasharray:none;stroke-opacity:1"
           d="m -84.870486,29.999998 -3e-6,-4.999999 c 0.01774,0.422451 0.27139,0.776004 0.760962,1.06066 v 5 c -0.315371,-0.264199 -0.709171,-0.414848 -0.760959,-1.060661 z"
           id="path32" />
        <path
           style="fill:#ffffff;fill-opacity:1;stroke:#000000;stroke-width:0.661458;stroke-linecap:round;stroke-linejoin:round;stroke-dasharray:none;stroke-opacity:1"
           d="m -79.674331,29.999997 3e-6,-4.999999 c -0.01774,0.422451 -0.27139,0.776004 -0.760962,1.06066 v 5 c 0.315371,-0.264199 0.709171,-0.414848 0.760959,-1.060661 z"
           id="path32-1" />
      </g>
      <g
         id="g19-8-6"
         style="display:none;stroke-width:0.661458;stroke-dasharray:none"
         transform="translate(-103.92305)">
        <path
           style="fill:none;stroke:#000000;stroke-width:0.661458;stroke-linecap:round;stroke-linejoin:round;stroke-dasharray:none;stroke-opacity:0.252924"
           d="m 17.320507,29.999998 v -4.999999 l 4.330127,2.499999 v 5 z"
           id="path17-9-0" />
        <path
           style="fill:none;stroke:#000000;stroke-width:0.661458;stroke-linecap:round;stroke-linejoin:round;stroke-dasharray:none;stroke-opacity:0.252924"
           d="m 21.650634,32.499998 4.330127,-2.5 v -4.999999 l -4.330127,2.499999 z"
           id="path18-2-2" />
        <path
           style="fill:none;stroke:#000000;stroke-width:0.661458;stroke-linecap:round;stroke-linejoin:round;stroke-dasharray:none;stroke-opacity:0.252924"
           d="m 21.650634,22.499999 -4.330127,2.5 4.330127,2.499999 4.330127,-2.499999 z"
           id="path19-7-4" />
      </g>
    </g>
  </g>
  <g
     id="layer2"
     style="display:none"
     transform="translate(-93.735304,96.161452)">
    <rect
       style="fill:none;fill-opacity:1;stroke:#000000;stroke-width:0.361742;stroke-linecap:round;stroke-linejoin:round;stroke-dasharray:1.08522, 1.08522;stroke-dashoffset:0;stroke-opacity:1"
       id="rect39-4-2"
       width="26.143656"
       height="24.974514"
       x="86.439644"
       y="-99.97451" />
  </g>
</svg>
